<?xml version="1.0" encoding="utf-8"?>
<!-- Generator: Adobe Illustrator 14.0.0, SVG Export Plug-In . SVG Version: 6.00 Build 43363)  -->
<!DOCTYPE svg PUBLIC "-//W3C//DTD SVG 1.1//EN" "http://www.w3.org/Graphics/SVG/1.1/DTD/svg11.dtd">
<svg version="1.1" id="Calque_1" xmlns="http://www.w3.org/2000/svg" xmlns:xlink="http://www.w3.org/1999/xlink" x="0px" y="0px"
	 width="314.59px" height="313.597px" viewBox="0 0 314.59 313.597" enable-background="new 0 0 314.59 313.597"
	 xml:space="preserve">
<path fill="#FFFFFF" d="M157.742,11.283"/>
<path fill="#FFFFFF" d="M157.742,303.917"/>
<path fill="#FFFFFF" d="M304.053,157.601"/>
<path fill="#FFFFFF" d="M306.719,157.601c0,80.814-65.501,146.316-146.311,146.316c-80.809,0-146.312-65.502-146.312-146.316
	c0-80.809,65.503-146.317,146.312-146.317C241.218,11.283,306.719,76.792,306.719,157.601z"/>
<path fill="#13235B" d="M160.408,30.963c-8.981,0-17.742,0.941-26.195,2.72C78.845,45.331,36.785,93.145,33.923,151.272
	c-0.103,2.096-0.158,4.205-0.158,6.328c0,17.051,3.433,33.287,9.534,48.146c38.409-4.57,77.475-6.977,117.098-6.977
	c6.231,0,12.443,0.082,18.646,0.199c33.25,0.633,66.093,2.926,98.463,6.777c5.505-13.385,8.818-27.889,9.424-43.096
	c0.067-1.676,0.11-3.357,0.11-5.051C287.04,87.659,230.339,30.963,160.408,30.963z"/>
<radialGradient id="SVGID_1_" cx="395.1914" cy="159.9922" r="87.0512" gradientTransform="matrix(-0.2846 -0.9586 0.9586 -0.2846 172.1186 536.0595)" gradientUnits="userSpaceOnUse">
	<stop  offset="0.3939" style="stop-color:#FFFFFF"/>
	<stop  offset="0.4167" style="stop-color:#F2F3F6"/>
	<stop  offset="0.5402" style="stop-color:#AFB5C7"/>
	<stop  offset="0.6576" style="stop-color:#7781A1"/>
	<stop  offset="0.7655" style="stop-color:#4C5883"/>
	<stop  offset="0.8619" style="stop-color:#2D3B6D"/>
	<stop  offset="0.9433" style="stop-color:#1A2960"/>
	<stop  offset="1" style="stop-color:#13235B"/>
</radialGradient>
<path fill="url(#SVGID_1_)" d="M286.93,162.651c-9.448,1.201-32.64,3.762-59.514,3.932c-14.544,21.498-42.599,30.012-58.534,29.486
	c3.48,1.023,6.854,1.98,10.161,2.9c33.25,0.633,66.093,2.926,98.463,6.777C283.011,192.362,286.324,177.858,286.93,162.651z"/>
<radialGradient id="SVGID_2_" cx="395.1904" cy="162.479" r="86.0471" gradientTransform="matrix(-0.2846 -0.9586 0.9586 -0.2846 172.1186 536.0595)" gradientUnits="userSpaceOnUse">
	<stop  offset="0.3939" style="stop-color:#FFFFFF"/>
	<stop  offset="0.4167" style="stop-color:#F2F3F6"/>
	<stop  offset="0.5402" style="stop-color:#AFB5C7"/>
	<stop  offset="0.6576" style="stop-color:#7781A1"/>
	<stop  offset="0.7655" style="stop-color:#4C5883"/>
	<stop  offset="0.8619" style="stop-color:#2D3B6D"/>
	<stop  offset="0.9433" style="stop-color:#1A2960"/>
	<stop  offset="1" style="stop-color:#13235B"/>
</radialGradient>
<path fill="url(#SVGID_2_)" d="M160.408,30.963c-8.981,0-17.742,0.941-26.195,2.72c-11.917,18.992-9.936,26.809-8.016,52.817
	c46.219-30.75,89.742-14.64,100.304,8.081c15.139,32.433,11.828,55.872,0.915,72.002c26.874-0.17,50.065-2.73,59.514-3.932
	c0.067-1.676,0.11-3.357,0.11-5.051C287.04,87.659,230.339,30.963,160.408,30.963z"/>
<g>
	<path fill="#13235B" d="M108.726,217.271c-1.498,0-2.711,1.213-2.711,2.711c0,0.404,0.087,0.777,0.241,1.115
		c-1.881-2.164-4.636-3.564-7.73-3.564c-5.696,0-10.311,4.613-10.311,10.299c0,4.91,3.455,9.01,8.058,10.037v2.252
		c-2.679,0.93-4.625,3.455-4.625,6.451l0,0l0,0l0,0l0,0l0,0c0,3.783,3.072,6.867,6.866,6.867c3.783,0,6.855-3.084,6.855-6.867l0,0
		l0,0l0,0l0,0l0,0c0-3.006-1.935-5.531-4.625-6.451v-2.252c4.614-1.027,8.069-5.117,8.069-10.037c0-2.143-0.634-4.1-1.749-5.75
		c0.47,0.371,1.027,0.635,1.662,0.635c1.498,0,2.723-1.225,2.723-2.734C111.448,218.483,110.224,217.271,108.726,217.271z
		 M101.411,246.571h0.011c-0.011,1.607-1.29,2.908-2.908,2.908c-1.596,0-2.908-1.311-2.908-2.908c0-1.596,1.301-2.896,2.919-2.896
		C100.11,243.675,101.411,244.976,101.411,246.571z M98.525,233.495c-3.138,0-5.686-2.537-5.686-5.664
		c0-3.137,2.547-5.674,5.686-5.674c3.116,0,5.652,2.537,5.652,5.674C104.177,230.958,101.641,233.495,98.525,233.495z"/>
	<path fill="#13235B" d="M191.471,217.532c-1.969,0-3.806,0.58-5.391,1.553v-1.902h-4.909v29.389h4.909v-10.004
		c1.585,0.973,3.422,1.564,5.391,1.564c5.696,0,10.299-4.615,10.299-10.301S197.167,217.532,191.471,217.532z M191.471,233.255
		c-3.007,0-5.435-2.428-5.435-5.424c0-3.006,2.428-5.422,5.435-5.422c2.984,0,5.423,2.416,5.423,5.422
		C196.894,230.827,194.455,233.255,191.471,233.255z"/>
	<path fill="#13235B" d="M172.512,226.466c-1.749-0.678-3.75-1.084-4.865-1.357c-2.132-0.523-2.952-1.322-2.952-2.229
		c0-1.203,1.486-2.002,3.422-2.002c0.951,0,1.771,0.043,3.105,0.48c0.983,0.328,1.935,0.732,2.843,1.225l1.465-4.176
		c-1.804-1.072-4.865-1.924-7.555-1.924c-2.854,0-4.385,0.547-6.145,1.771c-1.607,1.17-2.383,3.104-2.383,5.051
		c0,2.559,1.41,4.461,4.373,5.488c2.077,0.721,3.893,1.137,4.953,1.367c1.749,0.492,2.624,1.148,2.624,2
		c0,0.832-0.471,1.465-1.422,1.881c-0.743,0.371-1.563,0.547-2.481,0.547c-2.274,0-4.406-0.492-6.385-1.465l-1.662,3.695
		c2.646,1.246,5.959,1.99,7.839,2.1c1.509,0.086,2.908,0,3.914-0.219c3.411-0.766,5.347-3.227,5.347-6.691
		C176.546,229.45,175.223,227.526,172.512,226.466z"/>
	<path fill="#13235B" d="M221.417,219.085c-1.574-0.973-3.4-1.553-5.379-1.553c-5.696,0-10.3,4.613-10.3,10.299
		s4.604,10.301,10.3,10.301c1.979,0,3.805-0.592,5.379-1.564v1.662h4.898v-18.424l-4.898-2.623V219.085z M216.038,233.255
		c-2.996,0-5.435-2.428-5.435-5.424c0-3.006,2.438-5.422,5.435-5.422c2.995,0,5.412,2.416,5.412,5.422
		C221.45,230.827,219.033,233.255,216.038,233.255z"/>
	<polygon fill="#13235B" points="261.674,225.515 268.649,218.495 261.86,218.495 255.005,225.251 255.005,210.579 250.161,212.962 
		250.161,238.327 255.005,238.327 255.005,231.134 257.793,228.466 263.904,238.327 269.568,238.327 	"/>
	<path fill="#13235B" d="M238.331,219.282v-1.705h-4.854v20.652v0.098h4.898v-10.582c0.109-2.908,2.449-5.238,5.379-5.238
		c0.514,0,0.974,0.164,1.433,0.285l-2.252-5.074C241.239,217.849,239.687,218.429,238.331,219.282z"/>
	<path fill="#13235B" d="M125.749,217.532c-1.99,0-3.849,0.59-5.423,1.574v-8.627l-4.865,2.527v14.824v10.398h4.865l0.011-10.398
		c0-3.006,2.427-5.422,5.412-5.422c3.007,0,5.445,2.416,5.445,5.422v10.398h4.866v-10.398
		C136.06,222.146,131.445,217.532,125.749,217.532z"/>
	<polygon fill="#13235B" points="63.439,233.616 60.793,233.616 60.793,211.312 55.545,211.312 55.545,238.229 63.253,238.229 
		65.2,238.229 70.633,238.229 70.633,233.616 65.833,233.616 	"/>
	<rect x="77.478" y="224.968" fill="#13235B" width="4.865" height="13.262"/>
	<path fill="#13235B" d="M147.244,228.706v-6.297h8.255v-4.975h-8.255v-6.658l-4.909,2.23v4.428h-2.525v4.975h2.525v6.123
		c0,4.82,3.335,8.813,7.829,9.916c0.503,0.143,1.039,0.23,1.585,0.273c0.022,0,0.033,0.021,0.065,0.021v-0.01
		c0.273,0.031,0.525,0.086,0.82,0.086l3.094-5.85c-0.875,0.613-1.946,0.984-3.094,0.984
		C149.705,233.954,147.354,231.614,147.244,228.706z"/>
	<path fill="#13235B" d="M79.839,217.271c-1.498,0-2.722,1.213-2.722,2.711c0,1.51,1.224,2.734,2.722,2.734
		c1.509,0,2.723-1.225,2.723-2.734C82.562,218.483,81.348,217.271,79.839,217.271z"/>
</g>
<linearGradient id="SVGID_3_" gradientUnits="userSpaceOnUse" x1="162.3052" y1="161.77" x2="145.1035" y2="47.3787">
	<stop  offset="0" style="stop-color:#FFFFFF"/>
	<stop  offset="1" style="stop-color:#786C92"/>
</linearGradient>
<path opacity="0.35" fill="url(#SVGID_3_)" d="M160.408,30.963c-8.981,0-17.742,0.941-26.195,2.72
	C78.845,45.331,36.785,93.145,33.923,151.272c29.05,3.98,118.154,15.32,190.719,15.32c0.214,0,3.621-10.924,7.213-22.194
	c1.863-5.843-1.189-43.399-30.189-69.065c20,1,41,59.333,41,61c1.312-0.009-12.566,30.225-12.002,30.217
	c25.483-0.343,47.2-2.747,56.265-3.899c0.067-1.676,0.11-3.357,0.11-5.051C287.04,87.659,230.339,30.963,160.408,30.963z"/>
<polygon fill="#FFFFFF" points="145.725,158.694 132.473,158.694 125.858,158.694 118.533,158.694 118.533,97.03 104.024,97.03 
	104.024,171.458 125.366,171.458 130.724,171.458 145.725,171.458 "/>
<g>
	<g>
		<path fill="#FFFFFF" d="M198.73,137.544c-4.833-1.881-10.387-3.023-13.427-3.762c-5.926-1.444-8.2-3.658-8.2-6.167
			c0-3.324,4.155-5.521,9.446-5.521c2.646,0,4.942,0.143,8.616,1.345c2.733,0.896,5.357,2.017,7.872,3.356l4.023-11.551
			c-5.008-2.958-13.427-5.298-20.861-5.298c-7.894,0-12.136,1.493-16.969,4.898c-4.482,3.226-6.626,8.594-6.626,13.968
			c0,7.075,3.937,12.354,12.093,15.18c5.729,1.99,10.736,3.139,13.688,3.762c4.833,1.346,7.26,3.182,7.26,5.512
			c0,2.328-1.312,4.078-3.914,5.236c-2.077,0.99-4.352,1.48-6.888,1.48c-6.276,0-12.18-1.344-17.669-4.033l-4.57,10.211
			c7.326,3.439,16.466,5.512,21.671,5.816c4.198,0.246,8.068-0.01,10.846-0.629c9.446-2.098,14.76-8.904,14.76-18.488
			C209.882,145.788,206.252,140.462,198.73,137.544z"/>
	</g>
</g>
<g>
	<path fill="#E0DEEE" d="M199.167,77.75l31.088,24.329l5.412,44.421c0,0,27.764-25.008,11.667-51.167
		C232.667,71.5,199.167,77.75,199.167,77.75z"/>
	<path fill="#E1DFEE" d="M247.132,95.468c-14.537-23.669-47.673-17.469-47.673-17.469l30.751,24.162l5.433,44.105
		C235.644,146.266,263.083,121.439,247.132,95.468z"/>
	<path fill="#E2E0EF" d="M246.931,95.604c-14.407-23.506-47.179-17.356-47.179-17.356l30.415,23.996l5.455,43.789
		C235.621,146.032,262.735,121.386,246.931,95.604z"/>
	<path fill="#E3E1EF" d="M246.73,95.738c-14.278-23.342-46.686-17.242-46.686-17.242l30.078,23.829l5.476,43.473
		C235.598,145.798,262.388,121.333,246.73,95.738z"/>
	<path fill="#E3E2F0" d="M246.53,95.874c-14.148-23.178-46.192-17.128-46.192-17.128l29.741,23.663l5.498,43.156
		C235.576,145.563,262.04,121.28,246.53,95.874z"/>
	<path fill="#E4E2F0" d="M246.329,96.008c-14.019-23.014-45.699-17.014-45.699-17.014l29.404,23.496l5.519,42.84
		C235.553,145.33,261.693,121.227,246.329,96.008z"/>
	<path fill="#E5E3F1" d="M246.128,96.143c-13.889-22.85-45.205-16.9-45.205-16.9l29.067,23.329l5.54,42.523
		C235.53,145.095,261.345,121.174,246.128,96.143z"/>
	<path fill="#E6E4F1" d="M245.927,96.278c-13.759-22.687-44.711-16.787-44.711-16.787l28.73,23.163l5.562,42.207
		C235.507,144.861,260.998,121.121,245.927,96.278z"/>
	<path fill="#E7E5F2" d="M245.727,96.413c-13.63-22.522-44.218-16.672-44.218-16.672l28.393,22.996l5.583,41.891
		C235.485,144.627,260.65,121.068,245.727,96.413z"/>
	<path fill="#E8E6F2" d="M245.526,96.548c-13.5-22.358-43.725-16.559-43.725-16.559l28.056,22.83l5.604,41.574
		C235.462,144.393,260.303,121.015,245.526,96.548z"/>
	<path fill="#E8E7F2" d="M245.325,96.683c-13.37-22.194-43.23-16.445-43.23-16.445l27.719,22.663l5.626,41.258
		C235.439,144.159,259.955,120.962,245.325,96.683z"/>
	<path fill="#E9E8F3" d="M245.124,96.818c-13.241-22.03-42.737-16.331-42.737-16.331l27.382,22.496l5.647,40.942
		C235.417,143.925,259.608,120.909,245.124,96.818z"/>
	<path fill="#EAE9F3" d="M244.923,96.953c-13.111-21.867-42.244-16.217-42.244-16.217l27.045,22.33l5.669,40.625
		C235.394,143.691,259.26,120.856,244.923,96.953z"/>
	<path fill="#EBEAF4" d="M244.722,97.088c-12.981-21.703-41.75-16.103-41.75-16.103l26.708,22.163l5.69,40.309
		C235.371,143.457,258.913,120.803,244.722,97.088z"/>
	<path fill="#ECEAF4" d="M244.521,97.223c-12.852-21.539-41.256-15.989-41.256-15.989l26.372,21.997l5.712,39.993
		C235.349,143.223,258.565,120.75,244.521,97.223z"/>
	<path fill="#EDEBF5" d="M244.321,97.358c-12.723-21.375-40.763-15.875-40.763-15.875l26.035,21.83l5.733,39.677
		C235.326,142.989,258.218,120.697,244.321,97.358z"/>
	<path fill="#EDECF5" d="M244.12,97.493c-12.593-21.211-40.269-15.761-40.269-15.761l25.698,21.663l5.754,39.36
		C235.303,142.754,257.87,120.645,244.12,97.493z"/>
	<path fill="#EEEDF6" d="M243.919,97.627c-12.463-21.047-39.775-15.647-39.775-15.647l25.361,21.497l5.776,39.044
		C235.28,142.521,257.523,120.591,243.919,97.627z"/>
	<path fill="#EFEEF6" d="M243.718,97.763c-12.333-20.883-39.282-15.534-39.282-15.534l25.024,21.33l5.797,38.728
		C235.258,142.286,257.175,120.539,243.718,97.763z"/>
	<path fill="#F0EFF7" d="M243.518,97.897c-12.204-20.719-38.789-15.42-38.789-15.42l24.687,21.164l5.819,38.411
		C235.235,142.052,256.828,120.485,243.518,97.897z"/>
	<path fill="#F1F0F7" d="M243.317,98.033c-12.075-20.556-38.295-15.306-38.295-15.306l24.35,20.997l5.84,38.095
		C235.212,141.818,256.48,120.433,243.317,98.033z"/>
	<path fill="#F2F1F8" d="M243.116,98.167c-11.945-20.392-37.801-15.192-37.801-15.192l24.013,20.831l5.862,37.778
		C235.189,141.584,256.133,120.379,243.116,98.167z"/>
	<path fill="#F2F1F8" d="M242.915,98.302c-11.815-20.228-37.308-15.078-37.308-15.078l23.676,20.664l5.883,37.462
		C235.167,141.35,255.785,120.327,242.915,98.302z"/>
	<path fill="#F3F2F8" d="M242.714,98.438C231.029,78.374,205.9,83.473,205.9,83.473l23.339,20.497l5.904,37.146
		C235.144,141.116,255.438,120.273,242.714,98.438z"/>
	<path fill="#F4F3F9" d="M242.514,98.572c-11.556-19.9-36.321-14.851-36.321-14.851l23.002,20.331l5.926,36.83
		C235.122,140.882,255.09,120.221,242.514,98.572z"/>
	<path fill="#F5F4F9" d="M242.313,98.707c-11.426-19.736-35.827-14.736-35.827-14.736l22.666,20.164l5.947,36.513
		C235.099,140.647,254.743,120.168,242.313,98.707z"/>
	<path fill="#F6F5FA" d="M242.112,98.842c-11.297-19.572-35.333-14.623-35.333-14.623l22.329,19.998l5.969,36.197
		C235.076,140.414,254.395,120.115,242.112,98.842z"/>
	<path fill="#F7F6FA" d="M241.911,98.977c-11.167-19.408-34.84-14.509-34.84-14.509l21.992,19.831l5.99,35.88
		C235.053,140.179,254.048,120.062,241.911,98.977z"/>
	<path fill="#F7F7FB" d="M241.71,99.112c-11.037-19.244-34.346-14.395-34.346-14.395l21.655,19.664l6.012,35.564
		C235.031,139.945,253.7,120.009,241.71,99.112z"/>
	<path fill="#F8F8FB" d="M241.509,99.247c-10.908-19.08-33.853-14.281-33.853-14.281l21.318,19.498l6.033,35.248
		C235.008,139.711,253.353,119.956,241.509,99.247z"/>
	<path fill="#F9F9FC" d="M241.309,99.382C230.53,80.466,207.95,85.215,207.95,85.215l20.981,19.331l6.055,34.932
		C234.985,139.477,253.005,119.903,241.309,99.382z"/>
	<path fill="#FAFAFC" d="M241.108,99.517c-10.649-18.752-32.866-14.054-32.866-14.054l20.644,19.165l6.076,34.615
		C234.962,139.243,252.658,119.85,241.108,99.517z"/>
	<path fill="#FBFAFD" d="M240.907,99.652c-10.519-18.588-32.372-13.939-32.372-13.939l20.307,18.998l6.098,34.299
		C234.94,139.009,252.31,119.797,240.907,99.652z"/>
	<path fill="#FCFBFD" d="M240.706,99.787c-10.39-18.424-31.878-13.825-31.878-13.825l19.97,18.831l6.119,33.983
		C234.917,138.775,251.963,119.744,240.706,99.787z"/>
	<path fill="#FCFCFE" d="M240.505,99.922c-10.26-18.261-31.385-13.712-31.385-13.712l19.633,18.665l6.141,33.666
		C234.895,138.541,251.615,119.691,240.505,99.922z"/>
	<path fill="#FDFDFE" d="M240.305,100.057c-10.13-18.097-30.891-13.598-30.891-13.598l19.296,18.498l6.162,33.35
		C234.872,138.307,251.268,119.638,240.305,100.057z"/>
	<path fill="#FEFEFF" d="M240.104,100.192c-10-17.933-30.397-13.484-30.397-13.484l18.959,18.332l6.184,33.033
		C234.849,138.072,250.92,119.585,240.104,100.192z"/>
	<path fill="#FFFFFF" d="M209.999,86.957l18.623,18.165l6.205,32.717c0,0,15.747-18.306,5.077-37.512
		C230.032,82.558,209.999,86.957,209.999,86.957z"/>
</g>
<g>
	<path fill="#FFFFFF" d="M177.377,66.388c-15.364,0-29.5,5.226-40.758,13.979c8.96-5.031,19.289-7.912,30.295-7.912
		c34.276,0,62.003,27.729,62.003,61.977c0,34.25-27.727,61.998-62.003,61.998c-4.392,0-8.674-0.464-12.808-1.333
		c7.244,2.709,15.083,4.198,23.271,4.198c36.704,0,66.465-29.756,66.465-66.459C243.842,96.132,214.081,66.388,177.377,66.388z"/>
</g>
</svg>
