<?xml version="1.0" encoding="utf-8"?>
<!-- Generator: Adobe Illustrator 14.0.0, SVG Export Plug-In . SVG Version: 6.00 Build 43363)  -->
<!DOCTYPE svg PUBLIC "-//W3C//DTD SVG 1.1//EN" "http://www.w3.org/Graphics/SVG/1.1/DTD/svg11.dtd">
<svg version="1.1" id="Calque_1" xmlns="http://www.w3.org/2000/svg" xmlns:xlink="http://www.w3.org/1999/xlink" x="0px" y="0px"
	 width="554.741px" height="402px" viewBox="0 0 554.741 402" enable-background="new 0 0 554.741 402" xml:space="preserve">
<rect x="11.856" y="11.039" fill="#FFFFFF" width="530.875" height="378.508"/>
<g>
	<linearGradient id="SVGID_1_" gradientUnits="userSpaceOnUse" x1="505.2148" y1="310.2183" x2="505.2148" y2="190.5703">
		<stop  offset="0" style="stop-color:#FFFFFF"/>
		<stop  offset="0.2365" style="stop-color:#F1F0F4"/>
		<stop  offset="0.6744" style="stop-color:#CEC9D8"/>
		<stop  offset="1" style="stop-color:#B1A9C1"/>
	</linearGradient>
	<polygon fill="url(#SVGID_1_)" points="514.104,210.12 500.639,231.814 494.55,225.934 494.55,210.12 483.868,210.12 
		483.868,265.914 494.55,271.151 494.55,238.869 509.615,253.727 524.543,253.727 509.199,238.305 526.563,210.12 	"/>
	<linearGradient id="SVGID_2_" gradientUnits="userSpaceOnUse" x1="150.2163" y1="310.2178" x2="150.2163" y2="190.5704">
		<stop  offset="0" style="stop-color:#FFFFFF"/>
		<stop  offset="0.2365" style="stop-color:#F1F0F4"/>
		<stop  offset="0.6744" style="stop-color:#CEC9D8"/>
		<stop  offset="1" style="stop-color:#B1A9C1"/>
	</linearGradient>
	<path fill="url(#SVGID_2_)" d="M150.208,184.72c-38.77,0-83.414,1.391-114.564,12.977c-5.976,14.527-9.324,30.412-9.324,47.096
		c0,23.922,6.776,47.16,18.52,66.098h209.615c12.439-19.319,19.659-41.411,19.659-66.098c0-16.684-3.35-32.568-9.326-47.096
		C231.028,187.225,188.987,184.72,150.208,184.72z"/>
	<linearGradient id="SVGID_3_" gradientUnits="userSpaceOnUse" x1="354.7764" y1="310.2178" x2="354.7764" y2="190.5707">
		<stop  offset="0" style="stop-color:#FFFFFF"/>
		<stop  offset="0.2365" style="stop-color:#F1F0F4"/>
		<stop  offset="0.6744" style="stop-color:#CEC9D8"/>
		<stop  offset="1" style="stop-color:#B1A9C1"/>
	</linearGradient>
	<path fill="url(#SVGID_3_)" d="M354.777,210.554c-4.351,0-8.387,1.297-11.847,3.437v-20.799l-10.806,2.036v61.386h10.806v-4.184
		c3.46,2.14,7.496,3.427,11.847,3.427c12.509,0,22.65-10.142,22.65-22.651S367.286,210.554,354.777,210.554z M354.777,245.141
		c-6.594,0-11.936-5.34-11.936-11.934s5.342-11.936,11.936-11.936s11.934,5.342,11.934,11.936S361.371,245.141,354.777,245.141z"/>
	<linearGradient id="SVGID_4_" gradientUnits="userSpaceOnUse" x1="303.1416" y1="310.2178" x2="303.1416" y2="190.5713">
		<stop  offset="0" style="stop-color:#FFFFFF"/>
		<stop  offset="0.2365" style="stop-color:#F1F0F4"/>
		<stop  offset="0.6744" style="stop-color:#CEC9D8"/>
		<stop  offset="1" style="stop-color:#B1A9C1"/>
	</linearGradient>
	<path fill="url(#SVGID_4_)" d="M302.394,239.19c2.417-0.59,6.836-1.496,10.682-2.991c5.985-2.323,8.873-6.559,8.873-12.187
		c0-7.63-4.229-13.04-11.744-14.71c-2.208-0.486-5.288-0.695-8.628-0.505c-4.132,0.244-11.415,1.897-17.241,4.627l3.644,8.126
		c4.358-2.14,9.056-3.202,14.058-3.202c2.008,0,3.819,0.383,5.471,1.175c2.069,0.923,3.115,2.314,3.115,4.167
		c0,1.852-1.932,3.315-5.777,4.384c-2.349,0.496-6.333,1.41-10.89,2.993c-6.489,2.244-9.62,6.454-9.62,12.073
		c0,4.28,1.704,8.551,5.27,11.118c3.845,2.713,7.23,3.897,13.5,3.897c5.915,0,12.614-1.863,16.599-4.21l-3.201-9.195
		c-2.002,1.069-4.088,1.957-6.264,2.669c-2.922,0.958-4.749,1.071-6.854,1.071c-4.209,0-7.515-1.748-7.515-4.393
		C295.87,242.097,297.679,240.339,302.394,239.19z"/>
	<linearGradient id="SVGID_5_" gradientUnits="userSpaceOnUse" x1="408.7969" y1="310.2183" x2="408.7969" y2="190.5707">
		<stop  offset="0" style="stop-color:#FFFFFF"/>
		<stop  offset="0.2365" style="stop-color:#F1F0F4"/>
		<stop  offset="0.6744" style="stop-color:#CEC9D8"/>
		<stop  offset="1" style="stop-color:#B1A9C1"/>
	</linearGradient>
	<path fill="url(#SVGID_5_)" d="M420.646,213.991c-3.446-2.14-7.482-3.437-11.85-3.437c-12.509,0-22.65,10.144-22.65,22.653
		s10.142,22.651,22.65,22.651c4.367,0,8.403-1.288,11.85-3.427v4.184l10.804-5.767v-40.519h-10.804V213.991z M408.796,245.141
		c-6.594,0-11.934-5.34-11.934-11.934s5.34-11.936,11.934-11.936c6.595,0,11.937,5.342,11.937,11.936
		S415.391,245.141,408.796,245.141z"/>
	<linearGradient id="SVGID_6_" gradientUnits="userSpaceOnUse" x1="460.0332" y1="310.2183" x2="460.0332" y2="190.5702">
		<stop  offset="0" style="stop-color:#FFFFFF"/>
		<stop  offset="0.2365" style="stop-color:#F1F0F4"/>
		<stop  offset="0.6744" style="stop-color:#CEC9D8"/>
		<stop  offset="1" style="stop-color:#B1A9C1"/>
	</linearGradient>
	<path fill="url(#SVGID_6_)" d="M457.945,233.397V210.12h-10.804v0.209v45.426h10.698v-3.742c2.992,1.863,6.42,3.133,10.144,3.437
		l4.94-11.168c-1.009,0.287-2.019,0.634-3.132,0.634C463.339,244.915,458.171,239.783,457.945,233.397z"/>
</g>
<path fill="none" d="M150.321,198.36c-3.541,0-6.403-2.871-6.403-6.395h12.788C156.706,195.489,153.835,198.36,150.321,198.36z"/>
<path fill="#FFFFFF" d="M150.321,198.36c3.514,0,6.385-2.871,6.385-6.395h8.707v0.009c0,8.333-6.758,15.084-15.092,15.084
	c-8.334,0-15.102-6.751-15.102-15.084v-0.009h8.699C143.918,195.489,146.781,198.36,150.321,198.36z"/>
<g>
	<path fill="#13235B" d="M264.788,197.697c5.976-14.527,9.326-30.419,9.326-47.103c0-68.425-55.472-123.896-123.897-123.896
		c-68.424,0-123.896,55.472-123.896,123.896c0,16.684,3.349,32.576,9.324,47.103c37.57-4.461,75.794-6.819,114.564-6.819
		C188.987,190.878,227.209,193.236,264.788,197.697z"/>
</g>
<g>
	<g>
		<path fill="#13235B" d="M354.777,128.073c-4.351,0-8.387,1.292-11.847,3.432v-4.188h-10.806v61.248l10.806,2.037v-20.66
			c3.46,2.139,7.496,3.432,11.847,3.432c12.509,0,22.65-10.144,22.65-22.653C377.428,138.212,367.286,128.073,354.777,128.073z
			 M354.777,162.66c-6.594,0-11.936-5.346-11.936-11.939c0-6.589,5.342-11.93,11.936-11.93s11.934,5.341,11.934,11.93
			C366.711,157.314,361.371,162.66,354.777,162.66z"/>
		<path fill="#13235B" d="M313.075,147.732c-3.846-1.496-8.265-2.404-10.682-2.992c-4.715-1.148-6.524-2.91-6.524-4.906
			c0-2.645,3.306-4.393,7.515-4.393c2.105,0,3.933,0.113,6.854,1.07c2.176,0.713,4.262,1.604,6.264,2.67l3.201-9.19
			c-3.984-2.353-10.684-4.214-16.599-4.214c-6.27,0-9.655,1.188-13.5,3.897c-3.566,2.565-5.27,6.837-5.27,11.113
			c0,5.627,3.131,9.829,9.62,12.078c4.557,1.583,8.542,2.496,10.89,2.992c3.846,1.07,5.777,2.531,5.777,4.385
			c0,1.853-1.046,3.244-3.115,4.167c-1.651,0.788-3.463,1.179-5.471,1.179c-5.002,0-9.7-1.07-14.058-3.21l-3.644,8.125
			c5.826,2.737,13.108,4.385,17.241,4.629c3.34,0.194,6.42-0.009,8.628-0.501c7.516-1.67,11.744-7.085,11.744-14.709
			C321.948,154.291,319.061,150.055,313.075,147.732z"/>
		<path fill="#13235B" d="M420.646,131.5c-3.446-2.135-7.482-3.427-11.85-3.427c-12.509,0-22.65,10.139-22.65,22.647
			c0,12.509,10.142,22.653,22.65,22.653c4.367,0,8.403-1.293,11.85-3.432v3.661h10.804v-40.515l-10.804-5.771V131.5z
			 M408.796,162.66c-6.594,0-11.934-5.346-11.934-11.939c0-6.589,5.34-11.93,11.934-11.93c6.595,0,11.937,5.341,11.937,11.93
			C420.732,157.314,415.391,162.66,408.796,162.66z"/>
		<polygon fill="#13235B" points="509.199,145.632 524.542,130.204 509.615,130.204 494.55,145.062 494.55,112.78 483.868,118.018 
			483.868,173.815 494.55,173.815 494.55,157.993 500.639,152.117 514.104,173.815 526.562,173.815 		"/>
		<path fill="#13235B" d="M457.84,131.922v-3.75h-10.698v45.429v0.213h10.804v-23.277c0.226-6.39,5.394-11.521,11.847-11.521
			c1.113,0,2.123,0.348,3.132,0.634l-4.94-11.169C464.26,128.782,460.832,130.052,457.84,131.922z"/>
	</g>
</g>
<path fill="none" d="M150.321,185.571c-3.541,0-6.403,2.871-6.403,6.394h12.788C156.706,188.442,153.835,185.571,150.321,185.571z"
	/>
<path fill="#FFFFFF" d="M150.321,185.571c3.514,0,6.385,2.871,6.385,6.394h8.707v-0.009c0-8.333-6.758-15.087-15.092-15.087
	c-8.334,0-15.102,6.755-15.102,15.087v0.009h8.699C143.918,188.442,146.781,185.571,150.321,185.571z"/>
<radialGradient id="SVGID_7_" cx="462.8057" cy="51.7705" r="15.8049" gradientTransform="matrix(-0.539 -1.8156 1.8156 -0.539 318.974 1009.0266)" gradientUnits="userSpaceOnUse">
	<stop  offset="0.3939" style="stop-color:#FFFFFF"/>
	<stop  offset="0.4167" style="stop-color:#F2F3F6"/>
	<stop  offset="0.5402" style="stop-color:#AFB5C7"/>
	<stop  offset="0.6576" style="stop-color:#7781A1"/>
	<stop  offset="0.7655" style="stop-color:#4C5883"/>
	<stop  offset="0.8619" style="stop-color:#2D3B6D"/>
	<stop  offset="0.9433" style="stop-color:#1A2960"/>
	<stop  offset="1" style="stop-color:#13235B"/>
</radialGradient>
<path fill="url(#SVGID_7_)" d="M129.74,141.761c-0.975-13.223,7.637-28.575,22.364-32.473c23.208-6.124,43.659,14.727,44.216,31.829
	c0.609,18.476-21.329,44.508-48.896,31.155c9.508,0.313,31.672-8.803,19.642-34.59C163.465,129.939,142.145,121.818,129.74,141.761z
	"/>
<polygon fill="#FFFFFF" points="145.397,181.979 155.227,181.979 155.227,169.191 145.397,171.558 "/>
<g>
	<linearGradient id="SVGID_8_" gradientUnits="userSpaceOnUse" x1="156.5483" y1="177.0352" x2="135.4265" y2="36.5743">
		<stop  offset="0" style="stop-color:#FFFFFF"/>
		<stop  offset="1" style="stop-color:#786C92"/>
	</linearGradient>
	<path opacity="0.35" fill="url(#SVGID_8_)" d="M150.216,26.698c-63.206,0-115.323,47.346-122.91,108.5
		c21.747,3.67,113.894,18.049,246.585,22.496c0.135-2.351,0.222-4.715,0.222-7.099C274.113,82.169,218.642,26.698,150.216,26.698z"
		/>
	<linearGradient id="SVGID_9_" gradientUnits="userSpaceOnUse" x1="353.7852" y1="147.3745" x2="332.664" y2="6.9184">
		<stop  offset="0" style="stop-color:#FFFFFF"/>
		<stop  offset="1" style="stop-color:#786C92"/>
	</linearGradient>
	<path opacity="0.35" fill="url(#SVGID_9_)" d="M354.778,128.073c-4.351,0-8.387,1.292-11.849,3.432v-4.188h-10.806v31.605
		c4.811,0.042,9.486,0.066,14.063,0.076c-2.067-2.147-3.346-5.061-3.346-8.277c0-6.589,5.342-11.93,11.938-11.93
		c6.592,0,11.934,5.341,11.934,11.93c0,3.2-1.265,6.098-3.314,8.242c4.284-0.028,8.445-0.072,12.508-0.128
		c0.969-2.522,1.523-5.251,1.523-8.114C377.429,138.212,367.285,128.073,354.778,128.073z"/>
	<linearGradient id="SVGID_10_" gradientUnits="userSpaceOnUse" x1="304.8496" y1="154.7344" x2="283.7278" y2="14.2741">
		<stop  offset="0" style="stop-color:#FFFFFF"/>
		<stop  offset="1" style="stop-color:#786C92"/>
	</linearGradient>
	<path opacity="0.35" fill="url(#SVGID_10_)" d="M313.076,147.732c-3.848-1.496-8.266-2.404-10.683-2.992
		c-4.715-1.148-6.524-2.91-6.524-4.906c0-2.645,3.306-4.393,7.515-4.393c2.104,0,3.932,0.113,6.854,1.07
		c2.176,0.713,4.262,1.604,6.264,2.67l3.203-9.19c-3.984-2.353-10.684-4.214-16.6-4.214c-6.27,0-9.655,1.188-13.5,3.897
		c-3.566,2.565-5.27,6.837-5.27,11.113c0,5.627,3.131,9.829,9.62,12.078c4.557,1.583,8.542,2.496,10.89,2.992
		c2.645,0.735,4.361,1.661,5.189,2.767c3.918,0.071,7.861,0.133,11.838,0.186C321.507,153.741,318.654,149.897,313.076,147.732z"/>
	<linearGradient id="SVGID_11_" gradientUnits="userSpaceOnUse" x1="408.2637" y1="139.1836" x2="387.141" y2="-1.2828">
		<stop  offset="0" style="stop-color:#FFFFFF"/>
		<stop  offset="1" style="stop-color:#786C92"/>
	</linearGradient>
	<path opacity="0.35" fill="url(#SVGID_11_)" d="M420.645,127.316v4.184c-3.444-2.135-7.48-3.427-11.85-3.427
		c-12.507,0-22.65,10.139-22.65,22.647c0,2.787,0.529,5.443,1.45,7.909c4.121-0.087,8.12-0.189,12.002-0.303
		c-1.707-2.065-2.735-4.716-2.735-7.606c0-6.589,5.342-11.93,11.934-11.93c6.597,0,11.938,5.341,11.938,11.93
		c0,2.575-0.825,4.953-2.209,6.904c4.487-0.203,8.803-0.423,12.926-0.661v-23.875L420.645,127.316z"/>
	<linearGradient id="SVGID_12_" gradientUnits="userSpaceOnUse" x1="501.79" y1="125.1187" x2="480.6684" y2="-15.3408">
		<stop  offset="0" style="stop-color:#FFFFFF"/>
		<stop  offset="1" style="stop-color:#786C92"/>
	</linearGradient>
	<path opacity="0.35" fill="url(#SVGID_12_)" d="M509.197,145.632l15.318-15.402v-0.026h-14.9l-15.066,14.858V112.78l-10.68,5.237
		v33.972c11.634-1.7,20.045-3.499,26.082-5.138L509.197,145.632z"/>
	<linearGradient id="SVGID_13_" gradientUnits="userSpaceOnUse" x1="457.623" y1="131.7603" x2="436.5009" y2="-8.7027">
		<stop  offset="0" style="stop-color:#FFFFFF"/>
		<stop  offset="1" style="stop-color:#786C92"/>
	</linearGradient>
	<path opacity="0.35" fill="url(#SVGID_13_)" d="M469.793,139.017c1.113,0,2.123,0.348,3.13,0.634l-4.938-11.169
		c-3.726,0.3-7.151,1.57-10.144,3.44v-3.75h-10.698v27.741c3.774-0.289,7.38-0.59,10.802-0.905v-4.471
		C458.17,144.148,463.338,139.017,469.793,139.017z"/>
</g>
<path fill="#FFFFFF" d="M210.238,128.073c-4.402,0-8.481,1.31-11.96,3.483v-18.989l-10.691,5.558v32.595v22.882h10.691l0.026-22.882
	c0-6.589,5.341-11.93,11.935-11.93c6.585,0,11.935,5.341,11.935,11.93v22.882h10.717V150.72
	C232.89,138.212,222.747,128.073,210.238,128.073z"/>
<polygon fill="#FFFFFF" points="86.75,163.447 76.208,163.447 70.944,163.447 65.116,163.447 65.116,114.386 53.573,114.386 
	53.573,173.602 70.553,173.602 74.815,173.602 86.75,173.602 "/>
<rect x="104.062" y="144.409" fill="#FFFFFF" width="10.699" height="29.193"/>
<path fill="#FFFFFF" d="M281.308,171.423l-0.018-19.164c0,6.59-5.341,11.931-11.935,11.931c-6.454,0-11.63-5.132-11.865-11.521
	V138.79h18.164v-10.926H257.49v-14.658l-10.786,4.919v9.739h-5.568v10.926h5.568v13.47c0,10.622,7.359,19.398,17.224,21.831
	c1.096,0.313,2.261,0.5,3.479,0.612c0.053,0.004,0.087,0.019,0.14,0.022v-0.009c0.609,0.052,1.166,0.192,1.809,0.192
	C273.756,174.908,277.827,173.599,281.308,171.423z"/>
<circle fill="#FFFFFF" cx="109.245" cy="133.479" r="5.985"/>
<path fill="#FFFFFF" d="M210.238,255.858c-4.402,0-8.481-1.304-11.96-3.479v18.981l-10.691-5.551v-32.602v-22.878h10.691
	l0.026,22.878c0,6.594,5.341,11.934,11.935,11.934c6.585,0,11.935-5.34,11.935-11.934v-22.878h10.717v22.878
	C232.89,245.716,222.747,255.858,210.238,255.858z"/>
<polygon fill="#FFFFFF" points="86.75,220.489 76.208,220.489 70.944,220.489 65.116,220.489 65.116,269.551 53.573,269.551 
	53.573,210.329 70.553,210.329 74.815,210.329 86.75,210.329 "/>
<rect x="104.062" y="210.329" fill="#FFFFFF" width="10.699" height="29.193"/>
<path fill="#FFFFFF" d="M281.308,212.504l-0.018,19.172c0-6.594-5.341-11.934-11.935-11.934c-6.454,0-11.63,5.131-11.865,11.516
	v13.884h18.164v10.926H257.49v14.658l-10.786-4.916v-9.742h-5.568v-10.926h5.568v-13.465c0-10.63,7.359-19.399,17.224-21.833
	c1.096-0.314,2.261-0.505,3.479-0.61c0.053-0.007,0.087-0.017,0.14-0.026v0.009c0.609-0.052,1.166-0.19,1.809-0.19
	C273.756,209.025,277.827,210.329,281.308,212.504z"/>
<circle fill="#FFFFFF" cx="109.245" cy="250.448" r="5.985"/>
<g>
	<path fill="#E0DEEE" d="M153.571,130.308l15.311,6.719l0.295,17.722c0,0,12.274-10.198,5.634-20.657
		C168.498,124.148,153.571,130.308,153.571,130.308z"/>
	<path fill="#E3E1EF" d="M174.6,134.262c-6.167-9.81-20.715-3.899-20.715-3.899l14.951,6.746l0.298,17.439
		C169.133,154.548,181.099,144.603,174.6,134.262z"/>
	<path fill="#E6E4F1" d="M174.389,134.433c-6.021-9.676-20.19-4.014-20.19-4.014l14.591,6.773l0.301,17.155
		C169.09,154.347,180.747,144.655,174.389,134.433z"/>
	<path fill="#E9E7F2" d="M174.178,134.603c-5.875-9.542-19.666-4.129-19.666-4.129l14.231,6.801l0.304,16.872
		C169.047,154.146,180.395,144.707,174.178,134.603z"/>
	<path fill="#EBEAF4" d="M173.967,134.773c-5.728-9.408-19.141-4.245-19.141-4.245l13.871,6.828l0.307,16.588
		C169.004,153.945,180.042,144.758,173.967,134.773z"/>
	<path fill="#EEEDF6" d="M173.756,134.944c-5.582-9.274-18.616-4.36-18.616-4.36l13.512,6.855l0.31,16.305
		C168.961,153.744,179.69,144.811,173.756,134.944z"/>
	<path fill="#F1F0F7" d="M173.545,135.114c-5.436-9.14-18.092-4.475-18.092-4.475l13.152,6.883l0.313,16.021
		C168.918,153.543,179.338,144.862,173.545,135.114z"/>
	<path fill="#F4F3F9" d="M173.334,135.285c-5.29-9.006-17.567-4.59-17.567-4.59l12.792,6.91l0.315,15.737
		C168.875,153.342,178.986,144.915,173.334,135.285z"/>
	<path fill="#F7F6FA" d="M173.124,135.455c-5.144-8.872-17.042-4.705-17.042-4.705l12.433,6.938l0.318,15.454
		C168.832,153.142,178.634,144.966,173.124,135.455z"/>
	<path fill="#F9F9FC" d="M172.913,135.625c-4.998-8.738-16.518-4.82-16.518-4.82l12.072,6.965l0.321,15.171
		C168.789,152.941,178.282,145.018,172.913,135.625z"/>
	<path fill="#FCFCFD" d="M172.702,135.796c-4.851-8.604-15.993-4.935-15.993-4.935l11.713,6.992l0.324,14.887
		C168.746,152.74,177.93,145.07,172.702,135.796z"/>
	<path fill="#FFFFFF" d="M157.022,130.916l11.353,7.02l0.327,14.604c0,0,8.875-7.417,3.788-16.573
		C167.786,127.496,157.022,130.916,157.022,130.916z"/>
</g>
<g>
	<path fill="#FFFFFF" d="M150.321,128.073c-6.624,0-12.565,2.86-16.707,7.392c3.271-2.588,7.395-4.143,11.888-4.143
		c10.612,0,19.198,8.586,19.198,19.189c0,10.604-8.586,19.195-19.198,19.195c-5.104,0-9.731-2.007-13.169-5.259
		c4.139,5.416,10.646,8.926,17.989,8.926c12.509,0,22.651-10.144,22.651-22.653C172.973,138.212,162.83,128.073,150.321,128.073z"/>
</g>
<polygon fill="#FFFFFF" points="145.397,201.952 155.227,201.952 155.227,214.74 145.397,212.373 "/>
<g>
	<linearGradient id="SVGID_14_" gradientUnits="userSpaceOnUse" x1="162.9536" y1="316.1528" x2="162.9536" y2="182.8432">
		<stop  offset="0" style="stop-color:#FFFFFF"/>
		<stop  offset="0.2365" style="stop-color:#F1F0F4"/>
		<stop  offset="0.6744" style="stop-color:#CEC9D8"/>
		<stop  offset="1" style="stop-color:#B1A9C1"/>
	</linearGradient>
	<path fill="url(#SVGID_14_)" d="M139.661,252.765l12.052,0.835l17.168-6.695l-1.749-20.526l-11.373-14.335
		c0,0,47.825,13.732,23.676,43.089C164.966,272.724,139.661,252.765,139.661,252.765z"/>
	<linearGradient id="SVGID_15_" gradientUnits="userSpaceOnUse" x1="163.1885" y1="312.4844" x2="163.1885" y2="186.124">
		<stop  offset="0" style="stop-color:#FFFFFF"/>
		<stop  offset="0.2555" style="stop-color:#F1F0F4"/>
		<stop  offset="0.7288" style="stop-color:#CEC9D8"/>
		<stop  offset="1" style="stop-color:#B8B1C6"/>
	</linearGradient>
	<path fill="url(#SVGID_15_)" d="M141.239,252.788l11.475,0.439l16.122-6.405l-1.575-19.328l-10.324-13.692
		c0,0,44.284,13.158,21.868,40.679C165.222,271.243,141.239,252.788,141.239,252.788z"/>
	<linearGradient id="SVGID_16_" gradientUnits="userSpaceOnUse" x1="163.4106" y1="308.7964" x2="163.4106" y2="189.4111">
		<stop  offset="0" style="stop-color:#FFFFFF"/>
		<stop  offset="0.2784" style="stop-color:#F1F0F4"/>
		<stop  offset="0.794" style="stop-color:#CEC9D8"/>
		<stop  offset="1" style="stop-color:#BFB8CC"/>
	</linearGradient>
	<path fill="url(#SVGID_16_)" d="M142.817,252.811l10.896,0.043l15.076-6.114l-1.401-18.128l-9.275-13.049
		c0,0,40.676,12.53,20.06,38.268C165.437,269.729,142.817,252.811,142.817,252.811z"/>
	<linearGradient id="SVGID_17_" gradientUnits="userSpaceOnUse" x1="163.6401" y1="305.1392" x2="163.6401" y2="192.6889">
		<stop  offset="0" style="stop-color:#FFFFFF"/>
		<stop  offset="0.3063" style="stop-color:#F1F0F4"/>
		<stop  offset="0.8738" style="stop-color:#CEC9D8"/>
		<stop  offset="1" style="stop-color:#C6C0D1"/>
	</linearGradient>
	<path fill="url(#SVGID_17_)" d="M144.396,252.833l10.318-0.353l14.029-5.824l-1.227-16.93l-8.227-12.406
		c0,0,37.107,11.935,18.252,35.857C165.675,268.234,144.396,252.833,144.396,252.833z"/>
	<linearGradient id="SVGID_18_" gradientUnits="userSpaceOnUse" x1="163.8706" y1="301.501" x2="163.8706" y2="195.9612">
		<stop  offset="0" style="stop-color:#FFFFFF"/>
		<stop  offset="0.3414" style="stop-color:#F1F0F4"/>
		<stop  offset="0.974" style="stop-color:#CEC9D8"/>
		<stop  offset="1" style="stop-color:#CDC7D7"/>
	</linearGradient>
	<path fill="url(#SVGID_18_)" d="M145.974,252.856l9.74-0.749l12.983-5.533l-1.053-15.732l-7.178-11.763
		c0,0,33.542,11.343,16.444,33.447C165.914,266.741,145.974,252.856,145.974,252.856z"/>
	<linearGradient id="SVGID_19_" gradientUnits="userSpaceOnUse" x1="164.1016" y1="297.8862" x2="164.1016" y2="199.2272">
		<stop  offset="0" style="stop-color:#FFFFFF"/>
		<stop  offset="0.3869" style="stop-color:#F1F0F4"/>
		<stop  offset="1" style="stop-color:#D4CFDC"/>
	</linearGradient>
	<path fill="url(#SVGID_19_)" d="M147.552,252.878l9.162-1.144l11.937-5.243l-0.879-14.534l-6.129-11.12
		c0,0,29.982,10.757,14.636,31.037C166.156,265.251,147.552,252.878,147.552,252.878z"/>
	<linearGradient id="SVGID_20_" gradientUnits="userSpaceOnUse" x1="164.3345" y1="294.3047" x2="164.3345" y2="202.485">
		<stop  offset="0" style="stop-color:#FFFFFF"/>
		<stop  offset="0.4486" style="stop-color:#F1F0F4"/>
		<stop  offset="1" style="stop-color:#DBD7E2"/>
	</linearGradient>
	<path fill="url(#SVGID_20_)" d="M149.131,252.901l8.584-1.541l10.891-4.952l-0.705-13.334l-5.081-10.477
		c0,0,26.43,10.176,12.828,28.625C166.401,263.764,149.131,252.901,149.131,252.901z"/>
	<linearGradient id="SVGID_21_" gradientUnits="userSpaceOnUse" x1="164.5688" y1="290.7646" x2="164.5688" y2="205.7299">
		<stop  offset="0" style="stop-color:#FFFFFF"/>
		<stop  offset="0.537" style="stop-color:#F1F0F4"/>
		<stop  offset="1" style="stop-color:#E2DFE8"/>
	</linearGradient>
	<path fill="url(#SVGID_21_)" d="M150.709,252.924l8.006-1.936l9.845-4.662l-0.531-12.136l-4.032-9.834
		c0,0,22.886,9.603,11.02,26.215C166.652,262.282,150.709,252.924,150.709,252.924z"/>
	<linearGradient id="SVGID_22_" gradientUnits="userSpaceOnUse" x1="164.8062" y1="287.2817" x2="164.8062" y2="208.9584">
		<stop  offset="0" style="stop-color:#FFFFFF"/>
		<stop  offset="0.6786" style="stop-color:#F1F0F4"/>
		<stop  offset="1" style="stop-color:#E9E7ED"/>
	</linearGradient>
	<path fill="url(#SVGID_22_)" d="M152.288,252.947l7.428-2.332l8.798-4.371l-0.357-10.938l-2.983-9.191
		c0,0,19.353,9.039,9.212,23.805C166.909,260.805,152.288,252.947,152.288,252.947z"/>
	<linearGradient id="SVGID_23_" gradientUnits="userSpaceOnUse" x1="165.0459" y1="283.8823" x2="165.0459" y2="212.1642">
		<stop  offset="0" style="stop-color:#FFFFFF"/>
		<stop  offset="0.9438" style="stop-color:#F1F0F4"/>
		<stop  offset="1" style="stop-color:#F0EFF3"/>
	</linearGradient>
	<path fill="url(#SVGID_23_)" d="M153.866,252.969l6.85-2.728l7.751-4.081l-0.183-9.74l-1.935-8.548c0,0,15.835,8.485,7.404,21.394
		C167.178,259.335,153.866,252.969,153.866,252.969z"/>
	<linearGradient id="SVGID_24_" gradientUnits="userSpaceOnUse" x1="165.291" y1="280.6084" x2="165.291" y2="215.3353">
		<stop  offset="0" style="stop-color:#FFFFFF"/>
		<stop  offset="1" style="stop-color:#F8F7F9"/>
	</linearGradient>
	<path fill="url(#SVGID_24_)" d="M155.444,252.992l6.271-3.124l6.706-3.79l-0.009-8.541l-0.886-7.905c0,0,12.34,7.944,5.596,18.983
		C167.465,257.877,155.444,252.992,155.444,252.992z"/>
	<path fill="#FFFFFF" d="M157.022,253.015l5.694-3.52l5.659-3.5l0.165-7.342l0.163-7.262c0,0,8.875,7.417,3.788,16.573
		C167.786,256.435,157.022,253.015,157.022,253.015z"/>
</g>
<g>
	<path fill="#FFFFFF" d="M150.321,255.858c-6.624,0-12.565-2.861-16.707-7.392c3.271,2.587,7.395,4.143,11.888,4.143
		c10.612,0,19.198-8.586,19.198-19.189c0-10.604-8.586-19.195-19.198-19.195c-5.104,0-9.731,2.007-13.169,5.258
		c4.139-5.416,10.646-8.925,17.989-8.925c12.509,0,22.651,10.144,22.651,22.653C172.973,245.719,162.83,255.858,150.321,255.858z"/>
</g>
</svg>
